<svg xmlns="http://www.w3.org/2000/svg" viewBox="0 0 150.2 150.9"><defs><style>.cls-1{fill:gray;}.cls-2{fill-rule:evenodd;}.cls-3{font-size:10.72px;font-family:LucidaGrande, Lucida Grande;}.cls-4{fill:none;stroke:#231f20;stroke-miterlimit:10;}.cls-5{fill:#231f20;}</style></defs><title>sprites</title><g id="Layer_1" data-name="Layer 1"><path d="M30,149.9H.46c-.09,0-.33-.05-.41,0s0,.12.05,0,0-.34,0-.43v-29.3s0-.13,0-.16,0,.1-.1,0a.89.89,0,0,0,.23,0H29.57a1.28,1.28,0,0,0,.39,0s0-.13-.06,0,0,.35,0,.45V150a.1.1,0,0,0,.2,0V120a.11.11,0,0,0-.1-.1H0a.11.11,0,0,0-.1.1v30a.11.11,0,0,0,.1.1H30A.1.1,0,0,0,30,149.9Z" transform="translate(0.1 0.31)"/><path d="M90,89.69H60.46a1.41,1.41,0,0,0-.41,0c-.07,0,0,.12.05,0s0-.34,0-.43V60s0-.13,0-.16,0,.1-.1,0a.89.89,0,0,0,.23,0H89.57a1.27,1.27,0,0,0,.39,0s0-.12-.06,0,0,.34,0,.44V89.79a.1.1,0,0,0,.2,0v-30a.11.11,0,0,0-.1-.1H60a.11.11,0,0,0-.1.1v30a.1.1,0,0,0,.1.1H90A.1.1,0,0,0,90,89.69Z" transform="translate(0.1 0.31)"/><path d="M90,119.69H60.46a1.41,1.41,0,0,0-.41,0c-.07,0,0,.12.05,0s0-.34,0-.43V90s0-.13,0-.16,0,.1-.1,0a.89.89,0,0,0,.23,0H89.57a1.27,1.27,0,0,0,.39,0s0-.12-.06,0,0,.34,0,.44v29.48a.1.1,0,0,0,.2,0v-30a.11.11,0,0,0-.1-.1H60a.11.11,0,0,0-.1.1v30a.1.1,0,0,0,.1.1H90A.1.1,0,0,0,90,119.69Z" transform="translate(0.1 0.31)"/><path d="M90,149.69H60.46a1.41,1.41,0,0,0-.41,0c-.07,0,0,.12.05,0s0-.34,0-.43V120s0-.13,0-.16,0,.1-.1,0a.89.89,0,0,0,.23,0H89.57a1.27,1.27,0,0,0,.39,0s0-.12-.06,0,0,.34,0,.44v29.48a.1.1,0,0,0,.2,0v-30a.11.11,0,0,0-.1-.1H60a.11.11,0,0,0-.1.1v30a.1.1,0,0,0,.1.1H90A.1.1,0,0,0,90,149.69Z" transform="translate(0.1 0.31)"/><path d="M120,29.69H90.46a1.41,1.41,0,0,0-.41,0c-.07,0,0,.12,0,0s0-.34,0-.43V0s0-.13,0-.16,0,.1-.1.05a.89.89,0,0,0,.23,0h29.34a1.27,1.27,0,0,0,.39,0s0-.12-.06,0,0,.34,0,.44V29.79a.1.1,0,0,0,.2,0v-30a.11.11,0,0,0-.1-.1H90a.11.11,0,0,0-.1.1v30a.1.1,0,0,0,.1.1h30A.1.1,0,0,0,120,29.69Z" transform="translate(0.1 0.31)"/><path d="M120,59.69H90.46a1.41,1.41,0,0,0-.41,0c-.07,0,0,.12,0,0s0-.34,0-.43V30s0-.13,0-.16,0,.1-.1.05a.89.89,0,0,0,.23,0h29.34a1.27,1.27,0,0,0,.39,0s0-.12-.06,0,0,.34,0,.44V59.79a.1.1,0,0,0,.2,0v-30a.11.11,0,0,0-.1-.1H90a.11.11,0,0,0-.1.1v30a.1.1,0,0,0,.1.1h30A.1.1,0,0,0,120,59.69Z" transform="translate(0.1 0.31)"/><path d="M120,89.69H90.46a1.41,1.41,0,0,0-.41,0c-.07,0,0,.12,0,0s0-.34,0-.43V60s0-.13,0-.16,0,.1-.1,0a.89.89,0,0,0,.23,0h29.34a1.27,1.27,0,0,0,.39,0s0-.12-.06,0,0,.34,0,.44V89.79a.1.1,0,0,0,.2,0v-30a.11.11,0,0,0-.1-.1H90a.11.11,0,0,0-.1.1v30a.1.1,0,0,0,.1.1h30A.1.1,0,0,0,120,89.69Z" transform="translate(0.1 0.31)"/><path d="M120,119.69H90.46a1.41,1.41,0,0,0-.41,0c-.07,0,0,.12,0,0s0-.34,0-.43V90s0-.13,0-.16,0,.1-.1,0a.89.89,0,0,0,.23,0h29.34a1.27,1.27,0,0,0,.39,0s0-.12-.06,0,0,.34,0,.44v29.48a.1.1,0,0,0,.2,0v-30a.11.11,0,0,0-.1-.1H90a.11.11,0,0,0-.1.1v30a.1.1,0,0,0,.1.1h30A.1.1,0,0,0,120,119.69Z" transform="translate(0.1 0.31)"/><path d="M120,149.69H90.46a1.41,1.41,0,0,0-.41,0c-.07,0,0,.12,0,0s0-.34,0-.43V120s0-.13,0-.16,0,.1-.1,0a.89.89,0,0,0,.23,0h29.34a1.27,1.27,0,0,0,.39,0s0-.12-.06,0,0,.34,0,.44v29.48a.1.1,0,0,0,.2,0v-30a.11.11,0,0,0-.1-.1H90a.11.11,0,0,0-.1.1v30a.1.1,0,0,0,.1.1h30A.1.1,0,0,0,120,149.69Z" transform="translate(0.1 0.31)"/><path d="M150,29.69H120.46a1.41,1.41,0,0,0-.41,0c-.07,0,0,.12,0,0s0-.34,0-.43V0s0-.13,0-.16,0,.1-.1.05a.89.89,0,0,0,.23,0h29.34a1.28,1.28,0,0,0,.39,0s0-.12-.06,0,0,.34,0,.44V29.79a.1.1,0,0,0,.2,0v-30a.11.11,0,0,0-.1-.1H120a.11.11,0,0,0-.1.1v30a.1.1,0,0,0,.1.1h30A.1.1,0,0,0,150,29.69Z" transform="translate(0.1 0.31)"/><path d="M150,59.69H120.46a1.41,1.41,0,0,0-.41,0c-.07,0,0,.12,0,0s0-.34,0-.43V30s0-.13,0-.16,0,.1-.1.05a.89.89,0,0,0,.23,0h29.34a1.28,1.28,0,0,0,.39,0s0-.12-.06,0,0,.34,0,.44V59.79a.1.1,0,0,0,.2,0v-30a.11.11,0,0,0-.1-.1H120a.11.11,0,0,0-.1.1v30a.1.1,0,0,0,.1.1h30A.1.1,0,0,0,150,59.69Z" transform="translate(0.1 0.31)"/><path d="M150,89.69H120.46a1.41,1.41,0,0,0-.41,0c-.07,0,0,.12,0,0s0-.34,0-.43V60s0-.13,0-.16,0,.1-.1,0a.89.89,0,0,0,.23,0h29.34a1.28,1.28,0,0,0,.39,0s0-.12-.06,0,0,.34,0,.44V89.79a.1.1,0,0,0,.2,0v-30a.11.11,0,0,0-.1-.1H120a.11.11,0,0,0-.1.1v30a.1.1,0,0,0,.1.1h30A.1.1,0,0,0,150,89.69Z" transform="translate(0.1 0.31)"/><path d="M150,119.69H120.46a1.41,1.41,0,0,0-.41,0c-.07,0,0,.12,0,0s0-.34,0-.43V90s0-.13,0-.16,0,.1-.1,0a.89.89,0,0,0,.23,0h29.34a1.28,1.28,0,0,0,.39,0s0-.12-.06,0,0,.34,0,.44v29.48a.1.1,0,0,0,.2,0v-30a.11.11,0,0,0-.1-.1H120a.11.11,0,0,0-.1.1v30a.1.1,0,0,0,.1.1h30A.1.1,0,0,0,150,119.69Z" transform="translate(0.1 0.31)"/><path d="M150,149.69H120.46a1.41,1.41,0,0,0-.41,0c-.07,0,0,.12,0,0s0-.34,0-.43V120s0-.13,0-.16,0,.1-.1,0a.89.89,0,0,0,.23,0h29.34a1.28,1.28,0,0,0,.39,0s0-.12-.06,0,0,.34,0,.44v29.48a.1.1,0,0,0,.2,0v-30a.11.11,0,0,0-.1-.1H120a.11.11,0,0,0-.1.1v30a.1.1,0,0,0,.1.1h30A.1.1,0,0,0,150,149.69Z" transform="translate(0.1 0.31)"/><path d="M55,150.39H30.4c-.08,0-.29,0-.35,0s0,.12.05.05,0-.28,0-.34V126.94a10.93,10.93,0,0,0,0-1.28.48.48,0,0,0,0-.12c-.06-.1,0,.1-.1,0,.05,0,.14,0,.19,0,.43,0,.88,0,1.31,0H54.64c.07,0,.26,0,.33,0s0-.12-.07,0,0,.29,0,.36v24.58a.1.1,0,0,0,.2,0v-25a.1.1,0,0,0-.1-.1H30a.1.1,0,0,0-.1.1v25a.1.1,0,0,0,.1.1H55A.1.1,0,0,0,55,150.39Z" transform="translate(0.1 0.31)"/><path d="M80,49.91H55.4c-.07,0-.29,0-.35,0s0,.11.05,0,0-.27,0-.34V26.45a10.93,10.93,0,0,0,0-1.28s0-.09,0-.12,0,.1-.1.05a.67.67,0,0,0,.2,0c.43,0,.87,0,1.3,0H79.64c.07,0,.26,0,.33,0s0-.12-.06,0,0,.28,0,.36V50a.1.1,0,0,0,.2,0V25a.11.11,0,0,0-.1-.1H55a.11.11,0,0,0-.1.1V50a.11.11,0,0,0,.1.1H80A.1.1,0,0,0,80,49.91Z" transform="translate(0.1 0.31)"/></g><g id="Layer_2" data-name="Layer 2"><path class="cls-1" d="M18.55,16.18a1.18,1.18,0,0,0-1.18,1.19V22.1a1.18,1.18,0,0,1-1.19,1.18H12.63V5.54A2.38,2.38,0,0,0,11,3.29l-.35-.12h5.51a1.18,1.18,0,0,1,1.19,1.18V7.9a1.18,1.18,0,1,0,2.36,0V4.35A3.56,3.56,0,0,0,16.18.8H3.47a.5.5,0,0,0-.13,0c-.06,0-.11,0-.17,0A2.38,2.38,0,0,0,.8,3.17V24.46a2.39,2.39,0,0,0,1.62,2.25l7.11,2.38a2.71,2.71,0,0,0,.74.11,2.37,2.37,0,0,0,2.36-2.37V25.65h3.55a3.56,3.56,0,0,0,3.55-3.55V17.37A1.18,1.18,0,0,0,18.55,16.18Z" transform="translate(0.1 0.31)"/><path class="cls-1" d="M28.85,11.8,24.12,7.07a1.19,1.19,0,0,0-1.29-.26A1.18,1.18,0,0,0,22.1,7.9v3.55H17.37a1.19,1.19,0,1,0,0,2.37H22.1v3.55a1.18,1.18,0,0,0,2,.83l4.73-4.73A1.18,1.18,0,0,0,28.85,11.8Z" transform="translate(0.1 0.31)"/></g><g id="Layer_3" data-name="Layer 3"><path d="M18.55,46.18a1.18,1.18,0,0,0-1.18,1.19V52.1a1.18,1.18,0,0,1-1.19,1.18H12.63V35.54A2.38,2.38,0,0,0,11,33.29l-.35-.12h5.51a1.18,1.18,0,0,1,1.19,1.18V37.9a1.18,1.18,0,0,0,2.36,0V34.35a3.56,3.56,0,0,0-3.55-3.55H3.47a.5.5,0,0,0-.13,0c-.06,0-.11,0-.17,0A2.38,2.38,0,0,0,.8,33.17V54.46a2.39,2.39,0,0,0,1.62,2.25l7.11,2.38a2.71,2.71,0,0,0,.74.11,2.37,2.37,0,0,0,2.36-2.37V55.65h3.55a3.56,3.56,0,0,0,3.55-3.55V47.37A1.18,1.18,0,0,0,18.55,46.18Z" transform="translate(0.1 0.31)"/><path d="M28.85,41.8l-4.73-4.73a1.19,1.19,0,0,0-1.29-.26,1.18,1.18,0,0,0-.73,1.09v3.55H17.37a1.19,1.19,0,1,0,0,2.37H22.1v3.55a1.18,1.18,0,0,0,2,.83l4.73-4.73A1.18,1.18,0,0,0,28.85,41.8Z" transform="translate(0.1 0.31)"/></g><g id="Layer_4" data-name="Layer 4"><path class="cls-1" d="M14.17,76.67a.87.87,0,0,1-.59-.24.83.83,0,0,1-.2-.86l1.63-5,.06-.1v-.07l.06,0,.19.09-.11-.17,9.11-9.16a.83.83,0,0,1,1.19,0l3.25,3.26A.83.83,0,0,1,29,65a.82.82,0,0,1-.25.59l-9.09,9.14v0l-.23.16-.07,0h0l-.05,0-4.89,1.64a.82.82,0,0,1-.26,0Zm1.32-2.17,2-.67-1.35-1.35ZM19.05,73,27,65,24.92,63l-7.94,8Z" transform="translate(0.1 0.31)"/><path class="cls-1" d="M4.38,89.38a3.71,3.71,0,0,1-3.69-3.7v-17A3.71,3.71,0,0,1,4.38,65H16.27a1.14,1.14,0,1,1,0,2.28H4.38A1.42,1.42,0,0,0,3,68.65v17A1.42,1.42,0,0,0,4.38,87.1H21.32a1.42,1.42,0,0,0,1.41-1.42v-12a1.14,1.14,0,1,1,2.27,0v12a3.69,3.69,0,0,1-3.68,3.7Z" transform="translate(0.1 0.31)"/></g><g id="Layer_5" data-name="Layer 5"><path d="M14.35,106.67a.85.85,0,0,1-.59-.24.83.83,0,0,1-.21-.86l1.64-5,.06-.1v-.07l.06,0,.19.09-.12-.17,9.12-9.16a.83.83,0,0,1,1.19,0l3.25,3.26a.82.82,0,0,1,.24.59.85.85,0,0,1-.24.59l-9.09,9.14v0l-.23.15-.08,0h0s0,0-.05,0l-4.88,1.64a.84.84,0,0,1-.27,0Zm1.32-2.17,2-.67-1.34-1.35ZM19.23,103l7.94-8L25.09,93l-7.93,8Z" transform="translate(0.1 0.31)"/><path d="M4.55,119.38a3.69,3.69,0,0,1-3.68-3.7v-17A3.69,3.69,0,0,1,4.55,95h11.9a1.14,1.14,0,1,1,0,2.28H4.55a1.43,1.43,0,0,0-1.41,1.42v17a1.43,1.43,0,0,0,1.42,1.42H21.5a1.43,1.43,0,0,0,1.41-1.42v-12a1.14,1.14,0,1,1,2.27,0v12a3.69,3.69,0,0,1-3.68,3.7Z" transform="translate(0.1 0.31)"/></g><g id="Layer_6" data-name="Layer 6"><path d="M53.62,5.76,42.66.47a.34.34,0,0,0-.31,0l-11,5.29a.34.34,0,0,0-.2.32V18.93a.35.35,0,0,0,.2.32l11,5.29a.4.4,0,0,0,.15,0,.45.45,0,0,0,.16,0l11-5.29a.37.37,0,0,0,.2-.32V6.08A.36.36,0,0,0,53.62,5.76ZM42.5,1.18l10.15,4.9L49.71,7.5l-.06,0L39.57,2.59ZM38.77,3,48.9,7.88l-2.07,1L36.7,4ZM49.14,8.56v3.7l-1.94.93V9.49Zm4,10.15L42.86,23.66V11.59l2.44-1.18a.36.36,0,0,0,.17-.47A.37.37,0,0,0,45,9.77L42.5,11l-1-.48a.36.36,0,0,0-.31.64l.94.45V23.66L31.89,18.71V6.64l7.81,3.77a.41.41,0,0,0,.16,0,.34.34,0,0,0,.31-.2A.34.34,0,0,0,40,9.77L32.35,6.08l3.52-1.7L46.49,9.51h0v4.25a.37.37,0,0,0,.16.3.41.41,0,0,0,.19,0l.15,0,2.65-1.28a.36.36,0,0,0,.2-.32V8.21l3.26-1.57V18.71Z" transform="translate(0.1 0.31)"/><path d="M35.06,17.76,33.45,17a.35.35,0,0,0-.31.63l1.61.78a.28.28,0,0,0,.15,0,.36.36,0,0,0,.32-.2A.36.36,0,0,0,35.06,17.76Z" transform="translate(0.1 0.31)"/><path d="M36.54,16.8l-3.09-1.49a.36.36,0,0,0-.31.64l3.09,1.49a.41.41,0,0,0,.16,0,.34.34,0,0,0,.31-.2A.35.35,0,0,0,36.54,16.8Z" transform="translate(0.1 0.31)"/></g><g id="Layer_7" data-name="Layer 7"><g id="Page-1"><g id="icon-145-tag-cord"><path id="tag-cord" class="cls-2" d="M38.38,29h4.29L53.61,39.89a1.64,1.64,0,0,1,0,2.31l-5.87,5.87a1.64,1.64,0,0,1-2.32,0l-10.94-11V30.58A1.62,1.62,0,0,1,35.74,29a2.5,2.5,0,0,1,.32.78.82.82,0,0,0-.75.82v6.12L46,47.49a.81.81,0,0,0,1.15,0L53,41.59a.82.82,0,0,0,0-1.15L42.26,29.76H38.57l-.06-.29a4.39,4.39,0,0,0-.13-.52ZM39,31.4h0a2,2,0,1,1-2.05,2,1.58,1.58,0,0,1,0-.38,2.32,2.32,0,0,0,1.94,1.61H39a1.23,1.23,0,0,0,.33-2.41h0A3.6,3.6,0,0,1,39,31.4Zm-1.26-1.77c-.71-3.57-4.54-4.07-6-1.72-1.19,1.89,0,5.12,2,5.12v-.81c-1.27,0-2.17-2.48-1.29-3.87,1.1-1.75,4-1.38,4.53,1.44.66,3.34,1.16,4.06,2.49,4.06V33c-.82,0-1.1-.4-1.69-3.4Z" transform="translate(0.1 0.31)"/></g></g><text class="cls-3" transform="translate(44.39 44.35) rotate(-44.7)">₱</text></g><g id="Layer_8" data-name="Layer 8"><path d="M33.74,73.23a1.2,1.2,0,0,1-1.2-1.2V65.86a.78.78,0,0,1,.18-.35l5.36-5a2.54,2.54,0,0,1,.82-.68h1V57.3a.38.38,0,1,1,.76,0v2.54h3.69V57.3a.38.38,0,1,1,.75,0v2.54h1a2.29,2.29,0,0,1,.76.63l5.4,5a.69.69,0,0,1,.18.35V72a1.19,1.19,0,0,1-1.19,1.2ZM39,61.38l-5.2,4.84V72H51.22V66.22L46,61.33l-.21-.25H39.14Z" transform="translate(0.1 0.31)"/><path d="M48.81,60a.62.62,0,0,1-.62-.62V56.84A1.83,1.83,0,0,0,46.36,55H38.64a1.83,1.83,0,0,0-1.82,1.83v2.52a.63.63,0,0,1-.63.62h-4.4V59.1a6.74,6.74,0,0,1,6.74-6.74h7.95a6.74,6.74,0,0,1,6.74,6.74V60Z" transform="translate(0.1 0.31)"/><path d="M42.5,69.79a3.14,3.14,0,1,1,3.14-3.13A3.13,3.13,0,0,1,42.5,69.79Zm0-4.64A1.51,1.51,0,1,0,44,66.66,1.51,1.51,0,0,0,42.5,65.15Z" transform="translate(0.1 0.31)"/></g><g id="Layer_9" data-name="Layer 9"><circle class="cls-4" cx="42.6" cy="88.13" r="10.91"/><circle class="cls-4" cx="42.6" cy="88.19" r="8.14"/><path class="cls-5" d="M43.05,88a.53.53,0,0,1-.55.51h0A.53.53,0,0,1,42,88V83.61a.53.53,0,0,1,.55-.5h0a.52.52,0,0,1,.55.5Z" transform="translate(0.1 0.31)"/><path class="cls-5" d="M42.5,88.47a.56.56,0,0,1-.55-.56h0a.55.55,0,0,1,.55-.55h4.72a.55.55,0,0,1,.55.55h0a.55.55,0,0,1-.55.56Z" transform="translate(0.1 0.31)"/><line class="cls-4" x1="42.6" y1="79.95" x2="42.6" y2="81.6"/><line class="cls-4" x1="42.67" y1="94.56" x2="42.67" y2="96.22"/><line class="cls-4" x1="50.81" y1="88.15" x2="49.16" y2="88.15"/><line class="cls-4" x1="36.19" y1="88.22" x2="34.54" y2="88.22"/></g><g id="Layer_10" data-name="Layer 10"><g id="calendar"><path d="M51.93,103.79H48.87v-1.41a.71.71,0,0,0-1.42,0v1.41H43.21v-1.41a.71.71,0,0,0-1.42,0v1.41H37.55v-1.41a.71.71,0,0,0-.71-.71.7.7,0,0,0-.7.71v1.41H33.07a1.89,1.89,0,0,0-1.88,1.89v16.74a1.88,1.88,0,0,0,1.88,1.88H51.93a1.89,1.89,0,0,0,1.89-1.88V105.68A1.89,1.89,0,0,0,51.93,103.79Zm.47,18.63a.47.47,0,0,1-.47.47H33.07a.47.47,0,0,1-.47-.47V105.68a.47.47,0,0,1,.47-.47h3.07v1.41a.7.7,0,0,0,.7.71.71.71,0,0,0,.71-.71v-1.41h4.24v1.41a.71.71,0,1,0,1.42,0v-1.41h4.24v1.41a.71.71,0,0,0,1.42,0v-1.41h3.06a.47.47,0,0,1,.47.47Z" transform="translate(0.1 0.31)"/><rect x="36.24" y="110.47" width="2.83" height="2.12"/><rect x="36.24" y="114" width="2.83" height="2.12"/><rect x="36.24" y="117.54" width="2.83" height="2.12"/><rect x="41.19" y="117.54" width="2.83" height="2.12"/><rect x="41.19" y="114" width="2.83" height="2.12"/><rect x="41.19" y="110.47" width="2.83" height="2.12"/><rect x="46.14" y="117.54" width="2.83" height="2.12"/><rect x="46.14" y="114" width="2.83" height="2.12"/><rect x="46.14" y="110.47" width="2.83" height="2.12"/></g></g><g id="Layer_11" data-name="Layer 11"><polygon points="55.91 22.54 57.77 24.4 67.42 14.74 77.08 24.4 78.94 22.54 67.42 11.03 55.91 22.54"/><polygon points="55.91 12.74 57.77 14.59 67.42 4.94 77.08 14.59 78.94 12.74 67.42 1.22 55.91 12.74"/></g></svg>